# xmcd CD database file generated by Grip 3.3.1
# 
# Track frame offsets:
#       182
#       14962
#       31985
#       44122
#       61877
#       79140
#       92085
#       104567
#       124020
#       142002
#       157827
#       175145
# 
# Disc length: 2626 seconds
# 
# Revision: 2
# Processed by: cddbd v1.5.1PL2 Copyright (c) Steve Scherf et al.
# Submitted via: Grip 3.3.1
# 
DISCID=a50a400c
DTITLE=Mercy - Mercy
DYEAR=1993
DGENRE=Christian Rock
TTITLE0=PLF
TTITLE1=Dandelion
TTITLE2=Once Again
TTITLE3=Shelter
TTITLE4=River of Love
TTITLE5=Mother's Lullaby
TTITLE6=Mercy
TTITLE7=Morning Glory
TTITLE8=Travel
TTITLE9=Tell Me
TTITLE10=Vanilla
TTITLE11=Don't Hang On
EXTD=
EXTT0=
EXTT1=
EXTT2=
EXTT3=
EXTT4=
EXTT5=
EXTT6=
EXTT7=
EXTT8=
EXTT9=
EXTT10=
EXTT11=
PLAYORDER=
